<svg xmlns="http://www.w3.org/2000/svg" width="92.503" height="30" viewBox="0 0 92.503 30">
  <path id="CW_red_logo" data-name="CW red logo" d="M73.145,20.1V21.5A2.973,2.973,0,0,0,71.977,20.4a4.315,4.315,0,0,0-3.985.21,4.857,4.857,0,0,0-1.528,1.768,6.4,6.4,0,0,0,0,5.244,4.356,4.356,0,0,0,1.528,1.768,4,4,0,0,0,2.128.6h.12a3.669,3.669,0,0,0,1.708-.39,3,3,0,0,0,1.2-1.079v1.348h2.907V20.1Zm-.629,6.742-.09.09a2.141,2.141,0,0,1-1.468.6,2.034,2.034,0,0,1-1.588-.719,2.719,2.719,0,0,1-.689-1.828,2.58,2.58,0,0,1,.689-1.828l.03-.03a2.177,2.177,0,0,1,1.528-.6,2.108,2.108,0,0,1,1.588.689A2.847,2.847,0,0,1,72.516,26.838ZM89.6,20.1V21.5A2.973,2.973,0,0,0,88.428,20.4a4.315,4.315,0,0,0-3.985.21,4.857,4.857,0,0,0-1.528,1.768,6.4,6.4,0,0,0,0,5.244,4.356,4.356,0,0,0,1.528,1.768,4,4,0,0,0,2.128.6h.12a3.669,3.669,0,0,0,1.708-.39,3,3,0,0,0,1.2-1.079v1.348H92.5V20.1Zm-.629,6.742-.09.09a2.141,2.141,0,0,1-1.468.6,2.034,2.034,0,0,1-1.588-.719,2.719,2.719,0,0,1-.689-1.828,2.58,2.58,0,0,1,.689-1.828l.03-.03a2.177,2.177,0,0,1,1.528-.6,2.108,2.108,0,0,1,1.588.689A2.847,2.847,0,0,1,88.967,26.838ZM77.76,29.865V14.013h3.146V29.835ZM62.6,20.1,60.92,25.759,59.182,20.1H56.6l-1.738,5.663-.06-.15-1.678-5.484H50.1l3.326,9.739h2.787L57.8,24.111l1.618,5.753h2.787l3.3-9.739H62.6ZM33.112,16.021a4.235,4.235,0,0,1-4.225-4.105V4.124h3.176v6.922a2.212,2.212,0,0,0,2.217,2.217h.03a2.341,2.341,0,0,0,2.427-2.247V4.124H40V15.751H36.738V14.312a4.16,4.16,0,0,1-3.386,1.708ZM76.621,3.855a4.219,4.219,0,0,0-3.506,1.708V4.124h-3.3V15.751h3.3V8.859a2.335,2.335,0,0,1,2.457-2.247A2.216,2.216,0,0,1,77.79,9.039V12.6h3.116V8.349A4.2,4.2,0,0,0,76.621,3.855ZM48.9,3.825a4.87,4.87,0,0,0-3.925,1.918V4.094h-3.3v25.86h3.3V14.1A4.87,4.87,0,0,0,48.9,16.021c3.116,0,5.334-2.517,5.334-6.113C54.267,6.342,52.02,3.825,48.9,3.825Zm-.929,9.439a3.018,3.018,0,0,1-2.967-3.326,3.035,3.035,0,0,1,2.967-3.326,3.09,3.09,0,0,1,3.086,3.326A3.09,3.09,0,0,1,47.975,13.264ZM21.036,3.495A6.4,6.4,0,0,0,14.5,9.758a6.418,6.418,0,0,0,6.532,6.263,6.418,6.418,0,0,0,6.532-6.263A6.4,6.4,0,0,0,21.036,3.495Zm0,9.679a3.418,3.418,0,1,1,3.3-3.416A3.391,3.391,0,0,1,21.036,13.174ZM61.878,3.495a6.4,6.4,0,0,0-6.532,6.263,6.538,6.538,0,0,0,13.065,0A6.417,6.417,0,0,0,61.878,3.495Zm0,9.679a3.418,3.418,0,1,1,3.3-3.416A3.391,3.391,0,0,1,61.878,13.174Zm26.19-4.645c-1.558-.42-2.187-.6-2.187-1.229,0-.659.659-1.079,1.558-1.079a6.632,6.632,0,0,1,3.386,1.2l1.229-2.128a8.468,8.468,0,0,0-4.585-1.438c-2.757,0-4.555,1.588-4.555,3.776,0,2.307,1.858,2.967,4.255,3.536,1.259.33,2.217.629,2.217,1.378,0,.659-.569,1.079-1.678,1.079a7.659,7.659,0,0,1-3.985-1.408L82.4,14.283a8.643,8.643,0,0,0,5.244,1.768c2.877,0,4.764-1.468,4.764-3.776C92.323,9.728,90.076,9.039,88.068,8.529ZM13.9,13.683a7.8,7.8,0,0,1-2.517,1.648,8.725,8.725,0,0,1-2.457.629,5.3,5.3,0,0,1-.689.03,8.279,8.279,0,0,1-6.113-2.7h0v.03c-.18-.18-.33-.39-.509-.6-.12-.15-.18-.24-.27-.36-.15-.21-.27-.42-.42-.659A7.3,7.3,0,0,1,.12,9.488,9.217,9.217,0,0,1,0,7.9,8.7,8.7,0,0,1,.42,5.593c.09-.27.18-.509.27-.749a2.014,2.014,0,0,1,.18-.36c.12-.24.24-.449.39-.689A8.393,8.393,0,0,1,7.521.019a8.173,8.173,0,0,1,6.2,2.068C13.335,4.394,10.877,6.641,8.96,7.3a4.836,4.836,0,0,0,1.678-3.536A4.876,4.876,0,0,0,8.3,3.016h-.27a.83.83,0,0,0-.27.03h0c-.09,0-.15.03-.24.03-.15.03-.33.06-.479.09-.06.03-.15.03-.21.06H6.8l-.27.09c-.06.03-.15.06-.21.09a3.577,3.577,0,0,0-.479.24c-.06.03-.09.06-.15.09h0A4.741,4.741,0,0,0,3.686,6.282l-.09.27c-.03.06-.03.12-.06.18a.38.38,0,0,0-.03.18.51.51,0,0,0-.03.21,1.229,1.229,0,0,0-.03.33.38.38,0,0,1-.03.18v.15a4.84,4.84,0,0,0,0,.659v.03a4.859,4.859,0,0,0,4.764,4.555,4.735,4.735,0,0,0,1.948-.42.9.9,0,0,0,.24-.12c.06-.03.15-.09.21-.12s.09-.06.15-.09a4.89,4.89,0,0,0,2.038-2.7,5.579,5.579,0,0,0,.36,2.607,6.282,6.282,0,0,0,.659,1.259c0,.03.03.03.03.06A.259.259,0,0,0,13.9,13.683Z" transform="translate(0 0.016)" fill="#df0035"/>
</svg>
